<?xml version="1.0" encoding="UTF-8" standalone="no"?>
<svg width="100px" height="46px" viewBox="0 0 100 46" version="1.1" xmlns="http://www.w3.org/2000/svg" xmlns:xlink="http://www.w3.org/1999/xlink">
    <!-- Generator: Sketch 46.2 (44496) - http://www.bohemiancoding.com/sketch -->
    <title>logo-light</title>
    <desc>Created with Sketch.</desc>
    <defs></defs>
    <g id="Page-1" stroke="none" stroke-width="1" fill="none" fill-rule="evenodd">
        <g id="logo-light" fill-rule="nonzero" fill="#FFFFFF">
            <path d="M99.7333333,27.8666667 C99.5555556,27.5555556 99.2888889,27.4222222 98.9777778,27.4222222 C98.6222222,27.4222222 98.3111111,27.6 98,27.9555556 C97.1555556,29.0222222 96.4,29.8222222 95.7777778,30.2666667 C95.1555556,30.7111111 94.3111111,30.9777778 93.3333333,30.9777778 C91.9555556,30.9777778 90.9777778,30.4 90.4,29.2888889 C93.2888889,28.5777778 95.3333333,27.6444444 96.4888889,26.4444444 C97.6888889,25.2444444 98.2666667,23.8222222 98.2666667,22.1333333 C98.2666667,20.7111111 97.8222222,19.5555556 96.9777778,18.7555556 C96.1333333,17.9111111 95.0222222,17.5111111 93.6,17.5111111 C92.0444444,17.5111111 90.6222222,17.9555556 89.3777778,18.8 C88.1333333,19.6444444 87.1555556,20.8 86.4444444,22.2222222 C85.7333333,23.6444444 85.3777778,25.2 85.3777778,26.8888889 C85.3777778,27.6444444 85.4666667,28.3555556 85.6,29.0222222 C85.2888889,29.3333333 85.0222222,29.5555556 84.7555556,29.7777778 C84,30.3555556 83.1555556,30.6222222 82.1333333,30.6222222 C81.5111111,30.6222222 80.9777778,30.4 80.6222222,30 C80.2222222,29.5555556 79.9555556,28.8888889 79.7777778,27.8666667 C82.4888889,24.1333333 84.6666667,20.4 86.2666667,16.5777778 C87.8666667,12.8 88.6666667,9.46666667 88.6666667,6.57777778 C88.6666667,4.57777778 88.3555556,3.02222222 87.6888889,1.95555556 C87.0222222,0.888888889 86.1333333,0.355555556 84.9333333,0.355555556 C82.8888889,0.355555556 81.1111111,1.68888889 79.6,4.4 C78.1333333,7.11111111 76.9777778,10.3555556 76.2222222,14.1333333 C75.4666667,17.9111111 75.0666667,21.2444444 75.0666667,24.2222222 C75.0666667,24.3111111 75.0666667,24.3555556 75.0666667,24.4444444 C75.0222222,24.4444444 74.9777778,24.4444444 74.9333333,24.4444444 C74.7555556,24.4888889 74.3111111,24.5333333 73.6,24.5777778 C72.9333333,24.6222222 72.1333333,24.6666667 71.3333333,24.6666667 C70.4444444,24.6666667 69.6888889,25.0222222 69.0222222,25.6888889 C68.3555556,26.4 68,27.2 68,28.2222222 C68,28.5777778 68.0444444,28.8444444 68.0888889,29.0222222 C68.3111111,30.0888889 68.5333333,31.5111111 68.7111111,33.2444444 C68.8888889,34.9777778 69.0222222,36.7555556 69.0222222,38.6666667 C69.0222222,39.9555556 68.9333333,40.9333333 68.7111111,41.5111111 C68.4888889,42.1333333 68.2222222,42.4 67.8222222,42.4 C67.4222222,42.4 67.1555556,41.0666667 66.9777778,38.4444444 C66.8,35.8222222 66.7111111,33.2444444 66.7111111,30.7555556 C66.7111111,29.0222222 66.8,27.3333333 66.9777778,25.7333333 C69.1111111,24.5777778 70.9777778,22.8444444 72.5333333,20.5333333 C74.0888889,18.2222222 75.2888889,15.7333333 76.0888889,13.1111111 C76.8888889,10.4888889 77.2888889,8.08888889 77.2888889,5.95555556 C77.2888889,4.22222222 76.9777778,2.88888889 76.3111111,1.86666667 C75.6888889,0.844444444 74.8,0.355555556 73.6444444,0.355555556 C71.9111111,0.355555556 70.2666667,1.42222222 68.7555556,3.6 C67.2444444,5.77777778 65.9555556,8.62222222 64.9333333,12.1777778 C63.8666667,15.7333333 63.1111111,19.5111111 62.6666667,23.5111111 L62.1777778,23.5111111 L61.2888889,23.5111111 C59.9111111,23.5555556 58.8,23.8666667 57.9555556,24.5777778 C57.1111111,25.2444444 56.7111111,26.1333333 56.7111111,27.1555556 C56.7111111,27.5111111 56.7555556,27.7333333 56.8,27.9111111 C57.0222222,29.0222222 57.2444444,30.4888889 57.4222222,32.3111111 C57.6,34.1333333 57.6888889,36.2222222 57.6888889,38.6222222 C57.6888889,39.9111111 57.6,40.8888889 57.3777778,41.4666667 C57.1555556,42.0888889 56.8888889,42.3555556 56.4888889,42.3555556 C56.0888889,42.3555556 55.8222222,41.0222222 55.6444444,38.4 C55.4666667,35.7777778 55.3777778,33.2 55.3777778,30.7111111 C55.3777778,28.7111111 55.4666667,26.6222222 55.6888889,24.5333333 C59.2444444,20.9777778 61.7777778,17.6 63.1555556,14.3555556 C64.5777778,11.1111111 65.2888889,8.17777778 65.2888889,5.55555556 C65.2888889,3.86666667 64.9777778,2.57777778 64.3555556,1.64444444 C63.7333333,0.755555556 62.8888889,0.266666667 61.7777778,0.266666667 C59.6888889,0.266666667 57.7777778,1.82222222 56.1333333,4.93333333 C54.4444444,8.04444444 53.1555556,12 52.2222222,16.7555556 C51.4666667,20.6666667 51.0222222,24.5333333 50.8888889,28.4 C50.4,28.9333333 50,29.3333333 49.6444444,29.6444444 C48.9777778,30.2222222 48.4,30.5333333 47.9111111,30.5333333 C47.6,30.5333333 47.3333333,30.4 47.1555556,30.1333333 C46.9777778,29.8666667 46.8444444,29.5111111 46.8444444,29.0666667 C46.8444444,28.3555556 47.2,26.4444444 47.8666667,23.3333333 C48.4888889,20.6222222 48.7555556,18.9777778 48.7555556,18.3555556 C48.7555556,18 48.6666667,17.7333333 48.4444444,17.6 C48.2222222,17.4666667 47.8222222,17.4222222 47.2888889,17.4222222 C46.4888889,17.4222222 45.9111111,17.6 45.5111111,17.9111111 C45.1111111,18.2222222 44.8,18.7555556 44.6222222,19.4666667 C44.0444444,21.6 43.4222222,23.4222222 42.8444444,24.8888889 C42.2222222,26.3555556 41.6444444,27.4666667 41.1111111,28.1777778 C40.5777778,28.8888889 40.1333333,29.2444444 39.7333333,29.2444444 C39.4666667,29.2444444 39.2888889,29.1555556 39.1555556,28.9333333 C39.0222222,28.7111111 38.9777778,28.3555556 38.9777778,27.8666667 C38.9777778,27.0222222 39.2,25.3333333 39.6888889,22.8 C39.8222222,22.0888889 40.0444444,21.2444444 40.2666667,20.3555556 C40.5333333,19.2444444 40.6666667,18.5777778 40.6666667,18.4 C40.6666667,18.0444444 40.5777778,17.8222222 40.3555556,17.6444444 C40.1333333,17.4666667 39.7777778,17.3777778 39.2444444,17.3777778 C38.3111111,17.3777778 37.6,17.5555556 37.2,17.8666667 C36.7555556,18.1777778 36.4444444,18.7111111 36.1777778,19.4222222 C35.6,21.1111111 35.2444444,22.7111111 34.9777778,24.2222222 C34.7555556,25.5555556 34.6666667,27.0222222 34.6222222,28.5777778 C34.2222222,28.9777778 33.9111111,29.3333333 33.6,29.5555556 C32.9333333,30.1333333 32.3555556,30.4444444 31.8666667,30.4444444 C31.1555556,30.4444444 30.8,29.9555556 30.8,28.9777778 C30.8,28.3111111 31.0222222,26.9333333 31.5111111,24.8 C32.0444444,22.3555556 32.3111111,20.6222222 32.3111111,19.6888889 C32.3111111,18.1333333 31.5111111,17.3333333 29.9555556,17.3333333 C29.1555556,17.3333333 28.2666667,17.6 27.3333333,18.1777778 C26.4,18.7555556 25.4222222,19.6444444 24.4444444,20.9333333 C23.4666667,22.2222222 22.5777778,23.9111111 21.7777778,25.9555556 C21.7777778,24.6222222 21.8222222,23.3333333 21.8666667,22.0888889 C25.0666667,18.5777778 27.4222222,15.5111111 28.8444444,12.8888889 C30.2666667,10.2666667 30.9777778,7.73333333 30.9777778,5.28888889 C30.9777778,3.77777778 30.6222222,2.53333333 29.9555556,1.55555556 C29.2444444,0.622222222 28.3555556,0.133333333 27.2444444,0.133333333 C25.1555556,0.133333333 23.3777778,1.51111111 21.9111111,4.26666667 C20.4444444,7.02222222 19.2888889,10.4 18.5333333,14.4444444 C17.7777778,18.4888889 17.3777778,22.3555556 17.3777778,26.0888889 L17.3333333,28.3111111 C16.3111111,29.3333333 15.4222222,30.0444444 14.6222222,30.3555556 C14.6666667,29.9111111 14.7111111,29.6 14.7111111,29.3333333 C14.7111111,28.4888889 14.5333333,27.6888889 14.1333333,26.9777778 C13.7333333,26.2666667 13.1555556,25.4222222 12.3555556,24.4 C11.8222222,23.7333333 11.4222222,23.2 11.1555556,22.7555556 C10.8888889,22.3111111 10.7555556,21.9111111 10.7555556,21.5555556 C10.7555556,20.9333333 10.9777778,20.2222222 11.4222222,19.3333333 C11.6,19.0222222 11.7333333,18.7111111 11.8222222,18.4 C11.9111111,18.0888889 11.9555556,17.8666667 11.9555556,17.6888889 C11.9555556,17.4222222 11.8222222,17.2444444 11.5555556,17.1111111 C11.2888889,16.9777778 10.8,16.9333333 10.1333333,16.9333333 C8.66666667,16.9333333 7.73333333,17.4666667 7.28888889,18.5333333 C6.75555556,19.7777778 6.22222222,21.0222222 5.64444444,22.1777778 C5.06666667,23.3333333 4.62222222,24.2666667 4.17777778,24.9777778 C3.51111111,26.0444444 2.48888889,27.3777778 1.15555556,29.0222222 L0.666666667,29.6 C0.311111111,30 0.177777778,30.4444444 0.177777778,30.9333333 C0.177777778,31.3333333 0.311111111,31.6888889 0.533333333,31.9555556 C0.755555556,32.2222222 1.11111111,32.3555556 1.46666667,32.3555556 C1.95555556,32.3555556 2.4,32.1333333 2.84444444,31.6888889 C3.73333333,30.8444444 4.53333333,29.9555556 5.24444444,29.0222222 C6,28.0888889 6.71111111,26.8888889 7.46666667,25.4666667 C7.82222222,25.8666667 8.17777778,26.3111111 8.53333333,26.8444444 C8.93333333,27.3777778 9.24444444,27.9111111 9.51111111,28.4444444 C9.77777778,29.0222222 9.91111111,29.6 9.91111111,30.2222222 C9.68888889,30.1777778 9.37777778,30.1777778 8.93333333,30.0888889 C8.48888889,30.0444444 8.13333333,30 7.82222222,30 C6.93333333,30 6.26666667,30.2222222 5.77777778,30.6666667 C5.33333333,31.1111111 5.06666667,31.6888889 5.06666667,32.3111111 C5.06666667,33.0222222 5.37777778,33.6888889 6.04444444,34.2666667 C6.71111111,34.8444444 7.68888889,35.1555556 8.93333333,35.1555556 C10.2666667,35.1555556 11.4222222,34.7555556 12.3555556,33.9111111 C13.9555556,33.8666667 15.3333333,33.5555556 16.4444444,33.0222222 C16.7111111,32.8888889 16.9333333,32.7555556 17.2,32.5777778 C17.2444444,32.9777778 17.3333333,33.3333333 17.4666667,33.5555556 C17.6888889,34.0888889 18.1777778,34.3555556 18.8888889,34.3555556 C20.7111111,34.3555556 21.8222222,33.3777778 22.3111111,31.4666667 C22.6666667,30 23.1555556,28.5777778 23.7333333,27.2444444 C24.3111111,25.9111111 24.8888889,24.8444444 25.4666667,24.0444444 C26.0444444,23.2444444 26.4888889,22.8444444 26.8,22.8444444 C27.0666667,22.8444444 27.2,23.0222222 27.2,23.4222222 C27.2,24 27.0222222,25.0666667 26.7111111,26.5777778 C26.3555556,28.3111111 26.2222222,29.5111111 26.2222222,30.2222222 C26.2222222,31.5555556 26.5333333,32.6222222 27.1555556,33.3333333 C27.7777778,34.0444444 28.7111111,34.4 29.9555556,34.4 C31.4666667,34.4 32.8,34 33.9555556,33.1555556 C34.3555556,32.8888889 34.7111111,32.5777778 35.0666667,32.2666667 C35.1555556,32.4888889 35.2888889,32.6666667 35.4222222,32.8888889 C36.1333333,33.9111111 36.9777778,34.4 38.0888889,34.4 C39.0222222,34.4 39.9111111,33.9555556 40.7555556,33.0666667 C41.5555556,32.1777778 42.1777778,30.9333333 42.6222222,29.2888889 C42.6222222,30.8888889 42.8888889,32.1777778 43.4222222,33.0666667 C43.9555556,33.9555556 44.8,34.4 46,34.4 C47.5111111,34.4 48.8888889,34 50.0888889,33.1555556 C50.2666667,33.0222222 50.4888889,32.8888889 50.6666667,32.7111111 C50.7555556,36.7555556 51.1111111,39.8222222 51.7333333,41.9555556 C52.4888889,44.4 53.6888889,45.6444444 55.4666667,45.6444444 C56.8444444,45.6444444 57.9555556,44.9333333 58.8444444,43.6 C59.7333333,42.2222222 60.1777778,40.2222222 60.1777778,37.6 C60.1777778,35.6 60.0888889,33.7777778 60,32.1333333 C59.8666667,30.4888889 59.6888889,28.7555556 59.4222222,26.9777778 C59.8222222,26.9333333 60.3555556,26.9333333 61.0222222,26.9333333 C61.5111111,26.9333333 61.8666667,26.9333333 62.0888889,26.8888889 C62,28.1777778 62,29.4666667 62,30.7555556 C62,35.7333333 62.3555556,39.4666667 63.1111111,41.9111111 C63.8666667,44.3555556 65.0666667,45.6 66.8444444,45.6 C68.2222222,45.6 69.3333333,44.8888889 70.2222222,43.5555556 C71.1111111,42.1777778 71.5555556,40.1777778 71.5555556,37.5555556 C71.5555556,35.9555556 71.4666667,34.3111111 71.3333333,32.6666667 C71.1555556,31.0222222 70.9777778,29.6 70.7111111,28.3111111 C71.9555556,28.4 72.6222222,28.4 72.7555556,28.4 C73.7777778,28.4 74.6222222,28.3111111 75.2888889,28.0888889 C75.5555556,29.3333333 75.9111111,30.4444444 76.4444444,31.4222222 C77.4666667,33.3777778 79.0666667,34.3111111 81.1555556,34.3111111 C82.7111111,34.3111111 84.0888889,33.9111111 85.2888889,33.0666667 C85.8222222,32.7111111 86.3111111,32.3111111 86.8,31.8666667 C86.8888889,32 86.9777778,32.0888889 87.0666667,32.2222222 C88.3555556,33.6 90.1333333,34.3111111 92.4888889,34.3111111 C94,34.3111111 95.3333333,34 96.4444444,33.4222222 C97.5555556,32.8444444 98.4444444,32.0444444 99.1111111,30.9777778 C99.5111111,30.3555556 99.7333333,29.6 99.7333333,28.7111111 C100,28.5333333 99.9111111,28.1333333 99.7333333,27.8666667 Z M69.2,13.1111111 C69.8666667,10.4 70.5333333,8.17777778 71.2444444,6.48888889 C71.9555556,4.8 72.5333333,3.95555556 73.0222222,3.95555556 C73.6444444,3.95555556 73.9111111,4.71111111 73.9111111,6.17777778 C73.9111111,7.77777778 73.6888889,9.6 73.2,11.6 C72.7111111,13.6 72,15.4666667 71.0666667,17.2888889 C70.1333333,19.1111111 68.9333333,20.5333333 67.5555556,21.6444444 C68,18.6666667 68.5333333,15.8222222 69.2,13.1111111 Z M57.9111111,12 C58.4888889,9.55555556 59.0666667,7.6 59.6888889,6.13333333 C60.2666667,4.66666667 60.8,3.91111111 61.2444444,3.91111111 C61.4666667,3.91111111 61.6444444,4.08888889 61.7777778,4.4 C61.9111111,4.71111111 62,5.15555556 62,5.77777778 C62,7.86666667 61.5555556,10.1777778 60.6222222,12.7111111 C59.6888889,15.2444444 58.3111111,17.6444444 56.4888889,19.7777778 C56.8444444,17.0666667 57.3333333,14.4444444 57.9111111,12 Z M23.6888889,10.8444444 C24.1777778,8.71111111 24.7111111,7.06666667 25.2444444,5.82222222 C25.7777778,4.57777778 26.2666667,3.95555556 26.7111111,3.95555556 C27.0222222,3.95555556 27.2888889,4.17777778 27.4222222,4.57777778 C27.6,4.97777778 27.6888889,5.6 27.6888889,6.35555556 C27.6888889,8.04444444 27.2,9.91111111 26.2222222,12 C25.2444444,14.0888889 24,16 22.4888889,17.7777778 C22.8,15.2444444 23.2,12.9333333 23.6888889,10.8444444 Z M80.4444444,14.4 C80.9777778,11.4222222 81.6,8.93333333 82.3111111,6.93333333 C83.0222222,4.93333333 83.6444444,3.91111111 84.1777778,3.91111111 C84.8444444,3.91111111 85.2,4.84444444 85.2,6.66666667 C85.2,9.02222222 84.7111111,11.6 83.6888889,14.4444444 C82.6666667,17.2888889 81.2888889,20.1333333 79.6,22.9333333 C79.6444444,20.2222222 79.9111111,17.3777778 80.4444444,14.4 Z M89.8666667,26.4 C89.8666667,24.9333333 90.1777778,23.6888889 90.8,22.6222222 C91.4222222,21.6 92.1777778,21.0666667 93.0666667,21.0666667 C93.5111111,21.0666667 93.8666667,21.2 94.0888889,21.4666667 C94.3555556,21.7333333 94.4888889,22.1333333 94.4888889,22.5777778 C94.4888889,23.4666667 94.0888889,24.2666667 93.2444444,24.9333333 C92.4444444,25.6 91.2888889,26.1333333 89.8666667,26.4444444 L89.8666667,26.4 Z" id="Shape"></path>
        </g>
    </g>
</svg>