<?xml version="1.0" encoding="UTF-8" standalone="no"?>
<svg width="36px" height="48px" viewBox="0 0 36 48" version="1.1" xmlns="http://www.w3.org/2000/svg" xmlns:xlink="http://www.w3.org/1999/xlink">
    <!-- Generator: Sketch 46.2 (44496) - http://www.bohemiancoding.com/sketch -->
    <title>marker</title>
    <desc>Created with Sketch.</desc>
    <defs></defs>
    <g id="Page-1" stroke="none" stroke-width="1" fill="none" fill-rule="evenodd">
        <g id="marker" fill-rule="nonzero" fill="#000000">
            <path d="M16.150125,47.0315625 C2.5284375,27.2841562 0,25.2574687 0,18 C0,8.05884375 8.05884375,0 18,0 C27.9411562,0 36,8.05884375 36,18 C36,25.2574687 33.4715625,27.2841562 19.849875,47.0315625 C18.9559688,48.322875 17.0439375,48.3227812 16.150125,47.0315625 Z M18,25.5 C22.1421562,25.5 25.5,22.1421562 25.5,18 C25.5,13.8578438 22.1421562,10.5 18,10.5 C13.8578438,10.5 10.5,13.8578438 10.5,18 C10.5,22.1421562 13.8578438,25.5 18,25.5 Z" id="Shape"></path>
        </g>
    </g>
</svg>